<?xml version="1.0" standalone="no"?>
<!DOCTYPE svg PUBLIC "-//W3C//DTD SVG 20010904//EN"
 "http://www.w3.org/TR/2001/REC-SVG-20010904/DTD/svg10.dtd">
<svg version="1.0" xmlns="http://www.w3.org/2000/svg"
 width="512.000000pt" height="512.000000pt" viewBox="0 0 512.000000 512.000000"
 preserveAspectRatio="xMidYMid meet">

<g transform="translate(0.000000,512.000000) scale(0.100000,-0.100000)"
fill="#000000" stroke="none">
<path d="M1183 3453 c-17 -10 -163 -139 -323 -288 -264 -244 -294 -275 -323
-334 -28 -58 -32 -76 -35 -169 -3 -57 1 -131 7 -165 14 -72 40 -158 52 -171 4
-5 43 21 86 58 l78 67 7 -103 c4 -63 14 -128 28 -168 22 -67 62 -144 81 -155
5 -4 35 13 66 37 33 25 58 38 60 31 2 -6 32 -53 66 -105 69 -104 253 -296 357
-372 l65 -48 7 88 c16 196 117 407 240 504 42 33 130 69 205 85 69 15 321 19
374 6 18 -4 47 -33 90 -91 35 -46 82 -104 105 -127 36 -38 46 -43 84 -43 38 0
48 5 84 43 23 23 70 81 105 127 43 58 72 87 90 91 14 4 89 7 166 8 280 2 412
-57 531 -236 68 -103 110 -232 122 -375 l7 -80 65 48 c108 79 290 269 358 372
33 52 63 99 65 105 2 7 27 -6 60 -31 31 -24 61 -41 66 -37 19 11 59 88 81 155
14 40 24 105 28 168 l7 103 78 -67 c43 -37 82 -63 86 -58 12 13 38 99 52 171
6 34 10 108 7 165 -3 93 -7 111 -36 169 -29 60 -58 90 -323 335 -159 148 -305
277 -322 287 -29 15 -127 25 -127 12 0 -3 16 -37 35 -75 74 -147 115 -335 115
-526 0 -156 5 -151 -103 -94 -363 191 -721 250 -918 149 -135 -68 -224 -224
-251 -436 l-12 -93 -117 0 -116 0 -7 71 c-9 91 -50 231 -83 289 -145 247 -447
286 -883 114 -63 -25 -156 -68 -207 -94 -108 -57 -103 -62 -103 94 0 191 41
380 115 528 19 38 35 71 35 74 0 12 -99 2 -127 -13z"/>
<path d="M2546 1483 c-14 -88 -94 -214 -176 -279 l-43 -34 233 0 233 0 -43 34
c-82 65 -162 191 -176 279 -4 20 -10 37 -14 37 -4 0 -10 -17 -14 -37z"/>
</g>
</svg>
